#!OML:ASF Y:\EmotionMaleHayes\Project 1\Capture day 1\Session 1\Male1.ASF
:FULLY-SPECIFIED
:DEGREES
390
root -22.4976 17.2236 -1.73891 2.02127 79.8822 3.23953
lowerback 7.49853 2.8677 -8.11243
upperback 4.14838 3.42091 -1.56893
thorax -0.242167 1.66698 2.64288
lowerneck -23.2221 3.7464 5.61279
upperneck 31.3254 4.6876 -2.5465
head 15.0077 2.46617 -1.05708
rclavicle 5.96354e-016 -2.38542e-014
rhumerus 43.949 20.9174 -36.6028
rradius 42.0588
rwrist -4.63959
rhand -0.543773 -29.6335
rfingers 7.12502
rthumb 25.0694 -58.008
lclavicle 5.96354e-016 -2.38542e-014
lhumerus 40.0819 -17.7919 27.7799
lradius 41.3252
lwrist 5.32141
lhand -7.57618 -22.6776
lfingers 7.12502
lthumb 18.3166 6.47998
rfemur -0.959961 -4.94904 4.71764
rtibia 7.06098
rfoot -11.7298 -5.81433
rtoes 5.72361
lfemur 12.5615 4.81546 -21.3323
ltibia 2.91338
lfoot -16.9356 13.9693
ltoes 0.195141
391
root -22.4598 17.2207 -1.72662 1.22888 80.0326 2.54275
lowerback 7.32655 2.80336 -7.98888
upperback 4.3459 3.37926 -1.56684
thorax 0.069653 1.63514 2.59496
lowerneck -23.303 3.79976 5.64395
upperneck 31.1489 4.73734 -2.57138
head 14.9494 2.48105 -1.06242
rclavicle -3.97569e-016 9.54166e-015
rhumerus 44.0513 20.8171 -36.4123
rradius 42.1954
rwrist -4.72734
rhand -0.315332 -29.6918
rfingers 7.12502
rthumb 25.2883 -58.0356
lclavicle -3.97569e-016 9.54166e-015
lhumerus 40.2912 -17.6126 27.6435
lradius 41.3799
lwrist 5.41638
lhand -7.47242 -22.5767
lfingers 7.12502
lthumb 18.4164 6.57148
rfemur -1.18314 -4.97616 4.94324
rtibia 6.98129
rfoot -11.4842 -5.57528
rtoes 4.84826
lfemur 12.73 4.79918 -21.1112
ltibia 3.10233
lfoot -17.0114 13.8364
ltoes 0.122593
392
root -22.4185 17.2181 -1.71601 1.77208 80.2068 3.15947
lowerback 7.36433 2.76491 -8.17019
upperback 4.31043 3.31046 -1.53486
thorax 0.00889486 1.60014 2.73135
lowerneck -23.2286 3.81985 5.81236
upperneck 31.1498 4.84458 -2.95013
head 14.9571 2.49346 -1.22809
rclavicle 1.19271e-014 9.54166e-015
rhumerus 43.9449 20.9894 -36.1631
rradius 42.3253
rwrist -4.85591
rhand -0.186394 -29.6652
rfingers 7.12502
rthumb 25.4118 -57.9915
lclavicle 1.19271e-014 9.54166e-015
lhumerus 40.278 -17.7494 27.7055
lradius 41.4259
lwrist 5.58481
lhand -7.7008 -22.5247
lfingers 7.12502
lthumb 18.1967 6.64418
rfemur -1.4432 -5.08667 4.84396
rtibia 6.93039
rfoot -11.3091 -5.3682
rtoes 4.93639
lfemur 12.8834 4.88561 -21.1498
ltibia 3.26016
lfoot -17.0013 13.6277
ltoes -0.722844
393
root -22.3732 17.2128 -1.70594 2.88524 80.3497 4.38299
lowerback 7.42351 2.72668 -8.27238
upperback 4.27753 3.24725 -1.66622
thorax -0.0481593 1.57229 2.65358
lowerneck -23.1606 3.81 5.93013
upperneck 31.1512 4.81937 -3.03348
head 14.9481 2.48679 -1.28855
rclavicle -9.93923e-015 3.97569e-015
rhumerus 43.7613 21.0116 -36.4144
rradius 42.357
rwrist -4.77063
rhand -0.197067 -29.5934
rfingers 7.12502
rthumb 25.4016 -57.9212
lclavicle -9.93923e-015 3.97569e-015
lhumerus 40.3 -17.9458 27.5508
lradius 41.5207
lwrist 5.68696
lhand -7.97708 -22.4888
lfingers 7.12502
lthumb 17.9309 6.70459
rfemur -1.64985 -5.03941 4.61162
rtibia 6.8056
rfoot -11.1017 -5.322
rtoes 6.50535
lfemur 13.0911 4.83301 -21.3812
ltibia 3.3647
lfoot -17.0003 13.6204
ltoes -1.78794
394
root -22.3301 17.207 -1.69287 4.19778 80.3907 5.78549
lowerback 7.57781 2.74794 -8.52832
upperback 4.17535 3.23567 -1.74963
thorax -0.245275 1.5732 2.69933
lowerneck -23.1532 3.77615 5.85635
upperneck 31.1797 4.75734 -2.90709
head 14.9492 2.4713 -1.23573
rclavicle 2.38542e-015 -3.57812e-014
rhumerus 43.5887 21.1493 -36.4922
rradius 42.3798
rwrist -4.80122
rhand -0.262707 -29.5457
rfingers 7.12502
rthumb 25.3387 -57.8823
lclavicle 2.38542e-015 -3.57812e-014
lhumerus 40.2463 -18.1926 27.4912
lradius 41.6543
lwrist 5.75281
lhand -7.86726 -22.3727
lfingers 7.12502
lthumb 18.0366 6.81099
rfemur -1.91429 -5.17584 4.31966
rtibia 6.70477
rfoot -10.5948 -5.05633
rtoes 7.18894
lfemur 13.2163 4.83913 -21.6361
ltibia 3.57741
lfoot -17.1619 13.6434
ltoes -2.1877
395
root -22.2887 17.2022 -1.67835 4.946 80.4714 6.59007
lowerback 7.29665 2.70416 -8.71846
upperback 4.34612 3.21359 -1.74167
thorax 0.0834012 1.5448 2.83262
lowerneck -23.1984 3.7779 5.61777
upperneck 30.9577 4.7775 -2.76066
head 14.8464 2.46605 -1.13029
rclavicle -1.78906e-014 1.59028e-014
rhumerus 43.8304 21.0852 -36.1995
rradius 42.3982
rwrist -4.82667
rhand -0.141635 -29.6174
rfingers 7.12502
rthumb 25.4547 -57.9375
lclavicle -1.78906e-014 1.59028e-014
lhumerus 40.362 -17.9568 27.6501
lradius 41.5971
lwrist 5.60316
lhand -7.58189 -22.4533
lfingers 7.12502
lthumb 18.3111 6.70484
rfemur -2.21032 -5.28098 4.19698
rtibia 6.67292
rfoot -10.1706 -4.87615
rtoes 6.4556
lfemur 13.3016 4.71423 -21.7918
ltibia 3.78936
lfoot -17.4286 13.7501
ltoes -2.42997
396
root -22.2494 17.196 -1.66157 4.03842 80.6468 5.73242
lowerback 7.35685 2.67624 -8.6643
upperback 4.3065 3.16732 -1.62139
thorax 0.00907008 1.52362 2.92754
lowerneck -23.0993 3.74636 5.4941
upperneck 30.9268 4.82019 -2.8463
head 14.8112 2.45886 -1.13756
rclavicle -8.94531e-015 2.38542e-015
rhumerus 43.7623 21.1324 -36.1438
rradius 42.4537
rwrist -4.62523
rhand -0.0446642 -29.6138
rfingers 7.12502
rthumb 25.5476 -57.9207
lclavicle -8.94531e-015 2.38542e-015
lhumerus 40.3847 -18.0082 27.901
lradius 41.5114
lwrist 5.4328
lhand -7.48129 -22.5942
lfingers 7.12502
lthumb 18.4079 6.55483
rfemur -2.47841 -4.92568 4.52814
rtibia 6.59179
rfoot -9.92871 -5.23277
rtoes 6.25222
lfemur 13.4616 4.53025 -21.5783
ltibia 3.85517
lfoot -17.5702 13.8465
ltoes -2.96015
397
root -22.2052 17.19 -1.64516 4.34034 80.8196 6.11467
lowerback 7.40032 2.63978 -8.62352
upperback 4.30394 3.11874 -1.7187
thorax -0.00497919 1.50276 2.80633
lowerneck -23.1415 3.73365 5.66504
upperneck 30.9864 4.79184 -3.00547
head 14.8569 2.44484 -1.23753
rclavicle 3.57812e-015 -1.19271e-014
rhumerus 43.6856 21.0792 -36.3194
rradius 42.4067
rwrist -4.56097
rhand -0.275284 -29.5915
rfingers 7.12502
rthumb 25.3267 -57.9298
lclavicle 3.57812e-015 -1.19271e-014
lhumerus 40.5595 -18.185 27.5862
lradius 41.6006
lwrist 5.5725
lhand -7.41268 -22.556
lfingers 7.12502
lthumb 18.4739 6.58682
rfemur -2.68122 -4.87734 4.51386
rtibia 6.49751
rfoot -9.60563 -5.23078
rtoes 7.65155
lfemur 13.6777 4.49019 -21.5544
ltibia 3.86731
lfoot -17.598 13.7583
ltoes -3.63603
398
root -22.1555 17.1845 -1.63022 6.08736 80.9736 8.00717
lowerback 7.17205 2.61328 -9.00697
upperback 4.49412 3.10651 -1.70015
thorax 0.306593 1.47595 3.0539
lowerneck -23.3829 3.76638 5.54969
upperneck 30.9788 4.85239 -2.97339
head 14.905 2.45538 -1.18981
rclavicle 7.95139e-015 4.77083e-015
rhumerus 43.9298 21.0828 -35.6893
rradius 42.5078
rwrist -4.91552
rhand -0.410301 -29.7287
rfingers 7.12502
rthumb 25.1973 -58.0853
lclavicle 7.95139e-015 4.77083e-015
lhumerus 40.7367 -18.1124 27.55
lradius 41.6944
lwrist 5.71935
lhand -7.31508 -22.3936
lfingers 7.12502
lthumb 18.5678 6.74027
rfemur -2.75568 -5.12959 4.11554
rtibia 6.39101
rfoot -9.3897 -4.79019
rtoes 9.53558
lfemur 13.9357 4.34097 -21.8751
ltibia 3.95033
lfoot -17.8032 13.7394
ltoes -4.05691
399
root -22.1089 17.176 -1.61304 7.13679 81.1457 9.10653
lowerback 7.31097 2.58751 -9.03328
upperback 4.34652 3.04295 -1.81976
thorax 0.0876555 1.45716 2.93955
lowerneck -23.399 3.74125 5.50877
upperneck 31.1438 4.79725 -2.83317
head 14.9749 2.45136 -1.13496
rclavicle 2.62396e-014 -1.82882e-014
rhumerus 43.6649 21.2481 -35.7056
rradius 42.6021
rwrist -4.91772
rhand -0.110473 -29.6328
rfingers 7.12502
rthumb 25.4846 -57.9487
lclavicle 2.62396e-014 -1.82882e-014
lhumerus 40.7564 -18.4346 27.3597
lradius 41.8593
lwrist 5.82615
lhand -7.32996 -22.2844
lfingers 7.12502
lthumb 18.5535 6.85082
rfemur -2.98306 -5.19289 3.96227
rtibia 6.37286
rfoot -9.3951 -4.57657
rtoes 9.48732
lfemur 14.0762 4.0901 -22.0662
ltibia 4.10295
lfoot -18.2286 13.7079
ltoes -3.2964
400
root -22.062 17.1674 -1.59498 8.12205 81.2214 10.0894
lowerback 7.37261 2.61334 -9.17591
upperback 4.17894 3.04492 -1.83881
thorax -0.127294 1.46715 2.99111
lowerneck -23.2094 3.70746 5.38481
upperneck 31.1248 4.79026 -2.76214
head 14.9173 2.44859 -1.08791
rclavicle 2.28602e-014 -1.19271e-014
rhumerus 43.3989 21.4179 -35.5736
rradius 42.6924
rwrist -4.91399
rhand 0.149529 -29.4984
rfingers 7.12502
rthumb 25.7336 -57.7785
lclavicle 2.28602e-014 -1.19271e-014
lhumerus 40.6774 -18.6146 27.6296
lradius 41.9048
lwrist 5.48088
lhand -7.00437 -22.3684
lfingers 7.12502
lthumb 18.8666 6.73666
rfemur -3.35083 -5.33764 3.85149
rtibia 6.46414
rfoot -9.29454 -4.39974
rtoes 7.46609
lfemur 14.1923 4.01844 -22.2061
ltibia 4.20418
lfoot -18.4439 13.6363
ltoes -2.76631
401
root -22.0128 17.1598 -1.57374 8.52855 81.2704 10.6449
lowerback 7.36941 2.64067 -9.24417
upperback 4.22584 3.08371 -1.87931
thorax -0.0811195 1.48415 2.98468
lowerneck -23.1565 3.73042 5.39203
upperneck 30.9507 4.78355 -2.69162
head 14.8242 2.45465 -1.06222
rclavicle 3.10104e-014 -1.11319e-014
rhumerus 43.3672 21.4232 -35.2794
rradius 42.8126
rwrist -5.14301
rhand 0.0644653 -29.6565
rfingers 7.12502
rthumb 25.6521 -57.9483
lclavicle 3.10104e-014 -1.11319e-014
lhumerus 40.7757 -18.5266 27.8192
lradius 41.9105
lwrist 4.93653
lhand -6.38628 -22.3727
lfingers 7.12502
lthumb 19.461 6.67341
rfemur -3.46994 -5.2918 3.81965
rtibia 6.41288
rfoot -9.10006 -4.26247
rtoes 6.56585
lfemur 14.545 4.0537 -22.1992
ltibia 4.20013
lfoot -18.2908 13.7077
ltoes -4.44362
402
root -21.963 17.1523 -1.55113 8.66542 81.4165 10.9673
lowerback 7.46051 2.62834 -9.30851
upperback 4.2538 3.05645 -1.85946
thorax -0.102263 1.47024 3.03991
lowerneck -23.2597 3.77346 5.50051
upperneck 30.959 4.83272 -2.79743
head 14.8605 2.47107 -1.11333
rclavicle 1.35174e-014 -2.14687e-014
rhumerus 43.4104 21.4111 -35.2642
rradius 42.7688
rwrist -5.12653
rhand -0.0144563 -29.8541
rfingers 7.12502
rthumb 25.5765 -58.1569
lclavicle 1.35174e-014 -2.14687e-014
lhumerus 40.8296 -18.5279 27.9234
lradius 41.9234
lwrist 4.59583
lhand -6.25271 -22.2803
lfingers 7.12502
lthumb 19.5894 6.75281
rfemur -3.42561 -4.86985 3.85543
rtibia 6.1586
rfoot -8.88869 -4.37894
rtoes 9.1706
lfemur 14.9037 3.93593 -22.1672
ltibia 4.30495
lfoot -18.3011 13.8074
ltoes -5.83332
403
root -21.9142 17.147 -1.52991 10.6372 81.5432 13.0577
lowerback 7.43399 2.57448 -9.54851
upperback 4.28175 2.97939 -1.94509
thorax -0.0529046 1.42807 3.09215
lowerneck -23.2745 3.77285 5.37573
upperneck 30.8935 4.83879 -2.69684
head 14.8267 2.47166 -1.04928
rclavicle -1.98785e-015 3.97569e-015
rhumerus 43.566 21.3708 -35.4356
rradius 42.547
rwrist -4.98892
rhand -0.12838 -29.8313
rfingers 7.12502
rthumb 25.4674 -58.1497
lclavicle -1.98785e-015 3.97569e-015
lhumerus 40.8385 -18.5347 27.8695
lradius 41.9753
lwrist 4.55995
lhand -6.38873 -22.2324
lfingers 7.12502
lthumb 19.4586 6.81398
rfemur -3.48909 -4.64239 3.56627
rtibia 5.97063
rfoot -8.67204 -4.50879
rtoes 10.6211
lfemur 15.101 3.78444 -22.483
ltibia 4.54669
lfoot -18.5086 13.819
ltoes -6.38145
404
root -21.8645 17.1414 -1.5083 13.3477 81.6719 15.8205
lowerback 7.37427 2.53758 -9.87744
upperback 4.2641 2.91895 -2.02724
thorax -0.0380892 1.39479 3.19556
lowerneck -23.2312 3.75401 5.21459
upperneck 30.7888 4.85234 -2.64396
head 14.7632 2.46505 -0.998259
rclavicle -1.59028e-015 7.07673e-014
rhumerus 43.6073 21.3982 -35.3843
rradius 42.4831
rwrist -5.0944
rhand -0.136601 -29.7015
rfingers 7.12502
rthumb 25.4595 -58.021
lclavicle -1.59028e-015 7.07673e-014
lhumerus 40.8486 -18.6537 27.8033
lradius 42.0789
lwrist 4.66695
lhand -6.41294 -22.1876
lfingers 7.12502
lthumb 19.4354 6.86104
rfemur -3.65944 -4.88827 3.14788
rtibia 5.92826
rfoot -8.42015 -4.34889
rtoes 9.4621
lfemur 15.2444 3.69775 -22.8461
ltibia 4.70082
lfoot -18.5811 13.7767
ltoes -7.72831
